# xmcd CD database file
#
# Track frame offsets:
#	150
#	14329
#	27494
#	38428
#	50563
#	63172
#	75877
#	86344
#	97552
#	108987
#	122268
#	135984
#	144984
#	157562
#
# Disc length: 2263 seconds
#
# Revision: 0
# Processed by: cddbd v1.5.1PL0 Copyright (c) Steve Scherf et al.
# Submitted via: CDex 1.50beta10
#
DISCID=8908d50e
DTITLE=Slim Whitman - Absolutely The Best of Slim Whitman
DYEAR=2005
DGENRE=Country
TTITLE0=Indian Love Call
TTITLE1=Love Song Of The Waterwheel
TTITLE2=Keep It A Secret
TTITLE3=My Heart Is Broken In Three
TTITLE4=North Wind
TTITLE5=Secret Love
TTITLE6=Rose-Marie
TTITLE7=Singing Hills
TTITLE8=Cattle Call
TTITLE9=I'll Take You Home Again, Kathleen
TTITLE10=Lovesick Blues
TTITLE11=Unchain My Heart
TTITLE12=The Bells That Broke My Heart
TTITLE13=More Than Yesterday
EXTD=YEAR: 2005
EXTT0=
EXTT1=
EXTT2=
EXTT3=
EXTT4=
EXTT5=
EXTT6=
EXTT7=
EXTT8=
EXTT9=
EXTT10=
EXTT11=
EXTT12=
EXTT13=
PLAYORDER=
